<svg xmlns="http://www.w3.org/2000/svg" xmlns:xlink="http://www.w3.org/1999/xlink" width="500" zoomAndPan="magnify" viewBox="0 0 375 374.999991" height="500" preserveAspectRatio="xMidYMid meet" version="1.0"><defs><g/><clipPath id="3f51e2f6b0"><path d="M 333.820312 220 L 353 220 L 353 240 L 333.820312 240 Z M 333.820312 220 " clip-rule="nonzero"/></clipPath><clipPath id="7d23c993d6"><path d="M 153.488281 152.132812 L 218.738281 152.132812 L 218.738281 219.632812 L 153.488281 219.632812 Z M 153.488281 152.132812 " clip-rule="nonzero"/></clipPath></defs><g clip-path="url(#3f51e2f6b0)"><path fill="#050a30" d="M 343.246094 239.054688 C 338.042969 239.054688 333.820312 234.832031 333.820312 229.625 C 333.820312 224.417969 338.042969 220.195312 343.246094 220.195312 C 348.453125 220.195312 352.675781 224.417969 352.675781 229.625 C 352.675781 234.832031 348.453125 239.054688 343.246094 239.054688 Z M 343.246094 237.339844 C 347.507812 237.339844 350.960938 233.886719 350.960938 229.625 C 350.960938 225.367188 347.507812 221.910156 343.246094 221.910156 C 338.988281 221.910156 335.53125 225.367188 335.53125 229.625 C 335.53125 233.886719 338.988281 237.339844 343.246094 237.339844 Z M 345.289062 228.132812 C 345.230469 227.898438 345.144531 227.679688 345.039062 227.484375 C 344.929688 227.285156 344.792969 227.113281 344.621094 226.964844 C 344.457031 226.820312 344.261719 226.710938 344.035156 226.628906 C 343.808594 226.550781 343.546875 226.507812 343.246094 226.507812 C 342.816406 226.507812 342.441406 226.59375 342.121094 226.773438 C 341.804688 226.945312 341.546875 227.183594 341.347656 227.476562 C 341.148438 227.773438 341.003906 228.101562 340.910156 228.476562 C 340.808594 228.851562 340.761719 229.238281 340.761719 229.625 C 340.761719 230.015625 340.808594 230.398438 340.910156 230.773438 C 341.003906 231.148438 341.148438 231.476562 341.347656 231.773438 C 341.546875 232.066406 341.804688 232.304688 342.121094 232.476562 C 342.441406 232.65625 342.816406 232.742188 343.246094 232.742188 C 343.570312 232.742188 343.855469 232.6875 344.097656 232.578125 C 344.339844 232.464844 344.550781 232.3125 344.730469 232.117188 C 344.902344 231.925781 345.042969 231.695312 345.140625 231.4375 C 345.238281 231.175781 345.304688 230.898438 345.335938 230.597656 L 346.734375 230.597656 C 346.703125 231.089844 346.597656 231.535156 346.417969 231.941406 C 346.238281 232.34375 345.996094 232.691406 345.691406 232.988281 C 345.386719 233.28125 345.023438 233.507812 344.613281 233.671875 C 344.199219 233.832031 343.746094 233.910156 343.246094 233.910156 C 342.640625 233.910156 342.089844 233.800781 341.605469 233.570312 C 341.117188 233.347656 340.707031 233.039062 340.371094 232.652344 C 340.039062 232.261719 339.777344 231.808594 339.601562 231.285156 C 339.421875 230.769531 339.332031 230.214844 339.332031 229.625 C 339.332031 229.046875 339.421875 228.496094 339.601562 227.972656 C 339.777344 227.457031 340.039062 227 340.371094 226.613281 C 340.707031 226.222656 341.117188 225.910156 341.605469 225.683594 C 342.089844 225.457031 342.640625 225.339844 343.246094 225.339844 C 343.707031 225.339844 344.140625 225.402344 344.542969 225.527344 C 344.949219 225.65625 345.304688 225.839844 345.613281 226.082031 C 345.925781 226.316406 346.175781 226.613281 346.367188 226.957031 C 346.554688 227.300781 346.675781 227.691406 346.722656 228.132812 Z M 345.289062 228.132812 " fill-opacity="1" fill-rule="nonzero"/></g><g fill="#050a30" fill-opacity="1"><g transform="translate(16.79711, 206.852535)"><g><path d="M 47.953125 -19.21875 L 17.140625 -19.21875 C 17.140625 -16.226562 18.101562 -14.015625 20.03125 -12.578125 C 21.96875 -11.148438 24.066406 -10.4375 26.328125 -10.4375 C 28.703125 -10.4375 30.578125 -10.753906 31.953125 -11.390625 C 33.335938 -12.023438 34.914062 -13.28125 36.6875 -15.15625 L 47.28125 -9.859375 C 42.863281 -2.453125 35.523438 1.25 25.265625 1.25 C 18.859375 1.25 13.363281 -0.941406 8.78125 -5.328125 C 4.195312 -9.722656 1.90625 -15.007812 1.90625 -21.1875 C 1.90625 -27.375 4.195312 -32.675781 8.78125 -37.09375 C 13.363281 -41.507812 18.859375 -43.71875 25.265625 -43.71875 C 31.992188 -43.71875 37.46875 -41.769531 41.6875 -37.875 C 45.914062 -33.988281 48.03125 -28.429688 48.03125 -21.203125 C 48.03125 -20.203125 48.003906 -19.539062 47.953125 -19.21875 Z M 17.5625 -27.328125 L 33.703125 -27.328125 C 33.367188 -29.535156 32.5 -31.234375 31.09375 -32.421875 C 29.6875 -33.609375 27.878906 -34.203125 25.671875 -34.203125 C 23.242188 -34.203125 21.3125 -33.566406 19.875 -32.296875 C 18.4375 -31.023438 17.664062 -29.367188 17.5625 -27.328125 Z M 17.5625 -27.328125 "/></g></g></g><g fill="#050a30" fill-opacity="1"><g transform="translate(60.268786, 206.852535)"><g><path d="M 7.859375 -5.296875 C 3.890625 -9.660156 1.90625 -14.988281 1.90625 -21.28125 C 1.90625 -27.570312 3.890625 -32.882812 7.859375 -37.21875 C 11.835938 -41.550781 16.890625 -43.71875 23.015625 -43.71875 C 28.648438 -43.71875 33.289062 -41.707031 36.9375 -37.6875 L 37.09375 -37.6875 L 37.09375 -42.484375 L 51.59375 -42.484375 L 51.59375 21.53125 L 36.9375 21.53125 L 36.9375 -4.0625 C 33.289062 -0.519531 28.648438 1.25 23.015625 1.25 C 16.890625 1.25 11.835938 -0.929688 7.859375 -5.296875 Z M 20.203125 -28.4375 C 18.378906 -26.59375 17.46875 -24.207031 17.46875 -21.28125 C 17.46875 -18.351562 18.421875 -15.953125 20.328125 -14.078125 C 22.234375 -12.203125 24.59375 -11.265625 27.40625 -11.265625 C 30.164062 -11.265625 32.5 -12.203125 34.40625 -14.078125 C 36.3125 -15.953125 37.265625 -18.351562 37.265625 -21.28125 C 37.265625 -24.15625 36.335938 -26.53125 34.484375 -28.40625 C 32.640625 -30.28125 30.28125 -31.21875 27.40625 -31.21875 C 24.425781 -31.21875 22.023438 -30.289062 20.203125 -28.4375 Z M 20.203125 -28.4375 "/></g></g></g><g fill="#050a30" fill-opacity="1"><g transform="translate(110.364826, 206.852535)"><g><path d="M 18.796875 -42.484375 L 18.796875 -22.28125 C 18.796875 -18.082031 19.429688 -15.097656 20.703125 -13.328125 C 21.972656 -11.566406 24.125 -10.6875 27.15625 -10.6875 C 30.195312 -10.6875 32.351562 -11.566406 33.625 -13.328125 C 34.894531 -15.097656 35.53125 -18.082031 35.53125 -22.28125 L 35.53125 -42.484375 L 50.1875 -42.484375 L 50.1875 -18.71875 C 50.1875 -11.644531 48.347656 -6.546875 44.671875 -3.421875 C 41.003906 -0.304688 35.164062 1.25 27.15625 1.25 C 19.15625 1.25 13.316406 -0.304688 9.640625 -3.421875 C 5.972656 -6.546875 4.140625 -11.644531 4.140625 -18.71875 L 4.140625 -42.484375 Z M 18.796875 -42.484375 "/></g></g></g><g fill="#050a30" fill-opacity="1"><g transform="translate(158.225136, 206.852535)"><g><path d="M 8.984375 -5.046875 C 4.265625 -9.242188 1.90625 -14.628906 1.90625 -21.203125 C 1.90625 -27.773438 4.359375 -33.171875 9.265625 -37.390625 C 14.179688 -41.609375 20.257812 -43.71875 27.5 -43.71875 C 34.613281 -43.71875 40.613281 -41.59375 45.5 -37.34375 C 50.382812 -33.09375 52.828125 -27.707031 52.828125 -21.1875 C 52.828125 -14.675781 50.441406 -9.304688 45.671875 -5.078125 C 40.898438 -0.859375 34.84375 1.25 27.5 1.25 C 19.875 1.25 13.703125 -0.847656 8.984375 -5.046875 Z M 20.328125 -28.40625 C 18.421875 -26.53125 17.46875 -24.128906 17.46875 -21.203125 C 17.46875 -18.273438 18.378906 -15.882812 20.203125 -14.03125 C 22.023438 -12.1875 24.425781 -11.265625 27.40625 -11.265625 C 30.28125 -11.265625 32.640625 -12.203125 34.484375 -14.078125 C 36.335938 -15.953125 37.265625 -18.328125 37.265625 -21.203125 C 37.265625 -24.128906 36.3125 -26.53125 34.40625 -28.40625 C 32.5 -30.28125 30.164062 -31.21875 27.40625 -31.21875 C 24.59375 -31.21875 22.234375 -30.28125 20.328125 -28.40625 Z M 20.328125 -28.40625 "/></g></g></g><g fill="#050a30" fill-opacity="1"><g transform="translate(206.499471, 206.852535)"><g><path d="M 4.96875 0 L 4.96875 -42.484375 L 19.625 -42.484375 L 19.625 -38.015625 L 19.796875 -38.015625 C 23.597656 -41.816406 27.65625 -43.71875 31.96875 -43.71875 C 34.0625 -43.71875 36.144531 -43.441406 38.21875 -42.890625 C 40.289062 -42.335938 42.273438 -41.484375 44.171875 -40.328125 C 46.078125 -39.171875 47.625 -37.53125 48.8125 -35.40625 C 50 -33.28125 50.59375 -30.804688 50.59375 -27.984375 L 50.59375 0 L 35.9375 0 L 35.9375 -24.015625 C 35.9375 -26.222656 35.234375 -28.15625 33.828125 -29.8125 C 32.421875 -31.46875 30.585938 -32.296875 28.328125 -32.296875 C 26.117188 -32.296875 24.113281 -31.4375 22.3125 -29.71875 C 20.519531 -28.007812 19.625 -26.109375 19.625 -24.015625 L 19.625 0 Z M 4.96875 0 "/></g></g></g><g fill="#050a30" fill-opacity="1"><g transform="translate(254.773805, 206.852535)"><g><path d="M 7.453125 -42.484375 L 7.453125 -58.296875 L 22.109375 -58.296875 L 22.109375 -42.484375 L 31.0625 -42.484375 L 31.0625 -31.296875 L 22.109375 -31.296875 L 22.109375 -17.8125 C 22.109375 -13.882812 23.210938 -11.921875 25.421875 -11.921875 C 25.972656 -11.921875 26.550781 -12.03125 27.15625 -12.25 C 27.769531 -12.476562 28.242188 -12.703125 28.578125 -12.921875 L 29.0625 -13.25 L 32.71875 -1.40625 C 29.5625 0.363281 25.972656 1.25 21.953125 1.25 C 19.191406 1.25 16.816406 0.765625 14.828125 -0.203125 C 12.835938 -1.171875 11.332031 -2.46875 10.3125 -4.09375 C 9.289062 -5.726562 8.554688 -7.441406 8.109375 -9.234375 C 7.671875 -11.023438 7.453125 -12.941406 7.453125 -14.984375 L 7.453125 -31.296875 L 1.328125 -31.296875 L 1.328125 -42.484375 Z M 7.453125 -42.484375 "/></g></g></g><g fill="#050a30" fill-opacity="1"><g transform="translate(281.02211, 206.852535)"><g><path d="M 8.984375 -5.046875 C 4.265625 -9.242188 1.90625 -14.628906 1.90625 -21.203125 C 1.90625 -27.773438 4.359375 -33.171875 9.265625 -37.390625 C 14.179688 -41.609375 20.257812 -43.71875 27.5 -43.71875 C 34.613281 -43.71875 40.613281 -41.59375 45.5 -37.34375 C 50.382812 -33.09375 52.828125 -27.707031 52.828125 -21.1875 C 52.828125 -14.675781 50.441406 -9.304688 45.671875 -5.078125 C 40.898438 -0.859375 34.84375 1.25 27.5 1.25 C 19.875 1.25 13.703125 -0.847656 8.984375 -5.046875 Z M 20.328125 -28.40625 C 18.421875 -26.53125 17.46875 -24.128906 17.46875 -21.203125 C 17.46875 -18.273438 18.378906 -15.882812 20.203125 -14.03125 C 22.023438 -12.1875 24.425781 -11.265625 27.40625 -11.265625 C 30.28125 -11.265625 32.640625 -12.203125 34.484375 -14.078125 C 36.335938 -15.953125 37.265625 -18.328125 37.265625 -21.203125 C 37.265625 -24.128906 36.3125 -26.53125 34.40625 -28.40625 C 32.5 -30.28125 30.164062 -31.21875 27.40625 -31.21875 C 24.59375 -31.21875 22.234375 -30.28125 20.328125 -28.40625 Z M 20.328125 -28.40625 "/></g></g></g><g fill="#050a30" fill-opacity="1"><g transform="translate(329.296445, 206.852535)"><g><path d="M 14.40625 -17.71875 C 17.0625 -17.71875 19.3125 -16.789062 21.15625 -14.9375 C 23.007812 -13.09375 23.9375 -10.847656 23.9375 -8.203125 C 23.9375 -5.609375 23.007812 -3.382812 21.15625 -1.53125 C 19.3125 0.320312 17.0625 1.25 14.40625 1.25 C 11.8125 1.25 9.585938 0.320312 7.734375 -1.53125 C 5.890625 -3.382812 4.96875 -5.609375 4.96875 -8.203125 C 4.96875 -10.847656 5.890625 -13.09375 7.734375 -14.9375 C 9.585938 -16.789062 11.8125 -17.71875 14.40625 -17.71875 Z M 14.40625 -17.71875 "/></g></g></g><g clip-path="url(#7d23c993d6)"><path fill="#5cb6f9" d="M 218.859375 185.183594 L 209.21875 185.183594 C 192.714844 181.609375 189.042969 177.925781 185.472656 161.398438 L 185.472656 152.132812 L 184.253906 152.132812 L 184.253906 161.496094 C 180.6875 177.941406 177 181.617188 160.527344 185.183594 L 153.492188 185.183594 L 153.492188 186.402344 L 160.527344 186.402344 C 177 189.964844 180.6875 193.640625 184.253906 210.089844 L 184.253906 219.277344 L 185.472656 219.277344 L 185.472656 210.1875 C 189.042969 193.65625 192.714844 189.972656 209.21875 186.402344 L 218.859375 186.402344 Z M 218.859375 185.183594 " fill-opacity="1" fill-rule="nonzero"/></g></svg>